<svg width="812" height="812" viewBox="0 0 812 812" fill="none" xmlns="http://www.w3.org/2000/svg">
<path fill-rule="evenodd" clip-rule="evenodd" d="M395.046 156.941C358.559 167.027 311.13 206.719 264.379 266.296C217.362 326.209 178.074 396.679 157.436 458.118C150.691 478.193 143.709 506.337 142.74 517.348L142 525.762L148.669 513.333C176.779 460.945 237.928 407.464 337.519 348.162C351.375 339.911 421.947 300.818 428.193 297.934C431.067 296.606 423.003 302.781 406.082 314.865C361.468 346.723 314.182 382.431 289.943 402.565C271.069 418.243 269.031 420.013 269.03 420.724C269.028 421.939 301.857 419.54 311.718 417.604C361.403 407.848 399.173 387.59 429.388 354.488C462.016 318.745 475.303 276.369 468.441 229.944C463.083 193.697 447.31 165.643 428.193 158.358C417.909 154.439 405.949 153.928 395.046 156.941ZM462.997 180.993C470.688 192.769 476.8 207.457 481.948 226.54C489.371 254.049 498.403 315.639 506.225 392.074C512.134 449.812 520.085 502.726 528.275 538.82C528.8 541.138 528.676 541.451 527.782 540.055C524.916 535.571 503.571 459.325 495.408 424.408C490.814 404.753 481.869 359.296 480.543 348.859C480.086 345.268 479.31 342.33 478.817 342.33C476.924 342.33 466.622 386.509 462.723 411.35C460.365 426.366 460.748 468.329 463.369 482.236C475.439 546.27 517.452 591.765 574.854 602.964C588.578 605.641 612.905 605.282 624.617 602.227C629.897 600.851 636.616 598.539 639.548 597.093C647.612 593.112 658.745 581.947 662.308 574.265C678.45 539.471 665.393 479.066 623.087 392.834C580.495 306.018 526.554 231.16 472.731 184.179C465.029 177.456 458.359 171.955 457.912 171.955C457.463 171.955 459.751 176.022 462.997 180.993ZM265.982 448.161C215.477 453.296 167.784 488.207 150.307 532.838C144.008 548.924 144.969 567.364 152.821 581.071C159.858 593.357 177.49 608.495 195.243 617.494C215.928 627.98 250.705 639.414 281.031 645.7C317.687 653.299 347.608 656.525 392.823 657.755C474.39 659.972 551.699 647.086 605.424 622.314C617.976 616.526 628.915 610.281 622.114 612.784C620.773 613.278 613.638 614.523 606.259 615.551C540.611 624.693 454.127 594.248 327.461 517.406C302.482 502.251 260.434 475.042 261.04 474.423C261.273 474.187 265.224 475.92 269.821 478.277C279.094 483.031 315.563 499.969 359.284 519.827C399.946 538.296 465.392 565.617 465.392 564.122C465.392 562.476 448.548 542.781 434.731 528.27C409.734 502.019 385.773 483.197 360.503 469.962C325.914 451.845 296.488 445.059 265.982 448.161Z" fill="#050505"/>
</svg>
